# xmcd
# 
# Track frame offsets:
#     150
#     19743
#     36721
#     65190
#     83525
#     102176
#     116852
#     129982
#     143819
#     162536
#     185409
#     200573
#     222234
#     236309
#     257145
#     271149
# 
# Disc length: 3845
# 
# Revision: 3
# Processed by: cddbd v1.5.2PL0 Copyright (c) Steve Scherf et al.
# Submitted via: BonkEnc v1.0
# 
DISCID=ed0f0310
DTITLE=Karýþýk - Renkahenk Türküler 2
DYEAR=2005
DGENRE=Turkish Folk Songs CD2
TTITLE0=Altin Hizma Mulayim
TTITLE1=Ela Gozlum
TTITLE2=Hani Bagin Bagbanisin
TTITLE3=Yuksek Yuksek Tepelere
TTITLE4=Bedir
TTITLE5=Zello
TTITLE6=Gemular Giresun'a
TTITLE7=Adanali
TTITLE8=Igdirin Al Almasi
TTITLE9=Karadir Kaslarin
TTITLE10=Hekimoglu
TTITLE11=Gesi Baglari
TTITLE12=Izmirin Kavaklari
TTITLE13=Urfaya Pasa Geldi
TTITLE14=Yaylanin Cimenine
TTITLE15=Sizi (Ensturmantal)
EXTD=CD2\n
EXTT0=
EXTT1=
EXTT2=
EXTT3=
EXTT4=
EXTT5=
EXTT6=
EXTT7=
EXTT8=
EXTT9=
EXTT10=
EXTT11=
EXTT12=
EXTT13=
EXTT14=
EXTT15=
PLAYORDER=
